<svg width="162" height="45" viewBox="0 0 162 45" fill="none" xmlns="http://www.w3.org/2000/svg">
<path d="M75.1234 12.277H71.8415C71.7816 11.8524 71.6592 11.4752 71.4744 11.1455C71.2895 10.8108 71.0523 10.5261 70.7625 10.2913C70.4728 10.0566 70.1381 9.87673 69.7585 9.75185C69.3838 9.62696 68.9767 9.56452 68.5371 9.56452C67.7429 9.56452 67.0511 9.76184 66.4616 10.1565C65.8722 10.5461 65.4151 11.1156 65.0904 11.8648C64.7657 12.6091 64.6034 13.5133 64.6034 14.5773C64.6034 15.6712 64.7657 16.5904 65.0904 17.3347C65.4201 18.079 65.8797 18.6409 66.4691 19.0206C67.0585 19.4002 67.7404 19.59 68.5147 19.59C68.9493 19.59 69.3514 19.5326 69.721 19.4177C70.0957 19.3028 70.4279 19.1355 70.7176 18.9157C71.0073 18.6909 71.2471 18.4186 71.4369 18.0989C71.6317 17.7792 71.7666 17.4146 71.8415 17.005L75.1234 17.02C75.0385 17.7243 74.8262 18.4036 74.4865 19.058C74.1518 19.7074 73.6998 20.2894 73.1303 20.8039C72.5658 21.3134 71.8915 21.718 71.1072 22.0177C70.3279 22.3124 69.4463 22.4598 68.4622 22.4598C67.0935 22.4598 65.8697 22.1501 64.7907 21.5307C63.7167 20.9113 62.8675 20.0146 62.2431 18.8407C61.6237 17.6668 61.314 16.2457 61.314 14.5773C61.314 12.9039 61.6287 11.4802 62.2581 10.3063C62.8875 9.13243 63.7417 8.23828 64.8207 7.62386C65.8996 7.00445 67.1135 6.69474 68.4622 6.69474C69.3514 6.69474 70.1756 6.81963 70.9349 7.06939C71.6991 7.31915 72.376 7.68381 72.9654 8.16335C73.5549 8.6379 74.0344 9.21985 74.4041 9.9092C74.7787 10.5985 75.0185 11.3878 75.1234 12.277ZM77.39 22.25V10.7409H80.582V22.25H77.39ZM78.9935 9.25731C78.5189 9.25731 78.1118 9.09996 77.7721 8.78526C77.4375 8.46556 77.2701 8.08343 77.2701 7.63885C77.2701 7.19927 77.4375 6.82212 77.7721 6.50742C78.1118 6.18772 78.5189 6.02788 78.9935 6.02788C79.468 6.02788 79.8727 6.18772 80.2073 6.50742C80.547 6.82212 80.7169 7.19927 80.7169 7.63885C80.7169 8.08343 80.547 8.46556 80.2073 8.78526C79.8727 9.09996 79.468 9.25731 78.9935 9.25731ZM86.3309 15.5963V22.25H83.1389V10.7409H86.181V12.7715H86.3159C86.5707 12.1021 86.9978 11.5726 87.5972 11.183C88.1966 10.7884 88.9234 10.5911 89.7776 10.5911C90.5769 10.5911 91.2737 10.7659 91.8682 11.1156C92.4626 11.4652 92.9247 11.9647 93.2543 12.6141C93.584 13.2585 93.7489 14.0278 93.7489 14.9219V22.25H90.5569V15.4914C90.5619 14.7871 90.3821 14.2376 90.0174 13.843C89.6528 13.4433 89.1507 13.2435 88.5113 13.2435C88.0817 13.2435 87.7021 13.3359 87.3724 13.5208C87.0477 13.7056 86.793 13.9753 86.6081 14.33C86.4283 14.6797 86.3359 15.1018 86.3309 15.5963ZM101.51 22.4748C100.326 22.4748 99.3067 22.235 98.4525 21.7555C97.6033 21.2709 96.949 20.5866 96.4894 19.7024C96.0298 18.8133 95.8001 17.7618 95.8001 16.5479C95.8001 15.364 96.0298 14.325 96.4894 13.4309C96.949 12.5367 97.5959 11.8399 98.4301 11.3403C99.2693 10.8408 100.253 10.5911 101.382 10.5911C102.142 10.5911 102.848 10.7134 103.503 10.9582C104.162 11.198 104.737 11.5601 105.226 12.0447C105.721 12.5292 106.105 13.1386 106.38 13.8729C106.655 14.6022 106.792 15.4564 106.792 16.4355V17.3122H97.0738V15.3341H103.787C103.787 14.8745 103.688 14.4674 103.488 14.1127C103.288 13.758 103.011 13.4808 102.656 13.281C102.306 13.0762 101.899 12.9738 101.435 12.9738C100.95 12.9738 100.521 13.0862 100.146 13.311C99.7763 13.5308 99.4866 13.828 99.2768 14.2026C99.067 14.5723 98.9596 14.9844 98.9546 15.439V17.3197C98.9546 17.8891 99.0595 18.3812 99.2693 18.7958C99.4841 19.2104 99.7863 19.5301 100.176 19.7549C100.566 19.9797 101.028 20.092 101.562 20.092C101.917 20.092 102.241 20.0421 102.536 19.9422C102.831 19.8423 103.083 19.6924 103.293 19.4926C103.503 19.2928 103.663 19.048 103.772 18.7583L106.725 18.9531C106.575 19.6625 106.268 20.2819 105.803 20.8114C105.344 21.3359 104.749 21.7455 104.02 22.0402C103.295 22.3299 102.459 22.4748 101.51 22.4748ZM108.875 22.25V10.7409H111.917V12.7715H112.052C112.292 12.0971 112.692 11.5651 113.251 11.1755C113.81 10.7859 114.48 10.5911 115.259 10.5911C116.048 10.5911 116.72 10.7884 117.275 11.183C117.829 11.5726 118.199 12.1021 118.384 12.7715H118.504C118.738 12.1121 119.163 11.5851 119.777 11.1905C120.397 10.7909 121.129 10.5911 121.973 10.5911C123.047 10.5911 123.918 10.9332 124.588 11.6176C125.262 12.2969 125.599 13.261 125.599 14.5098V22.25H122.415V15.1392C122.415 14.4998 122.245 14.0203 121.905 13.7006C121.566 13.3809 121.141 13.2211 120.632 13.2211C120.052 13.2211 119.6 13.4059 119.275 13.7755C118.951 14.1402 118.788 14.6222 118.788 15.2217V22.25H115.694V15.0718C115.694 14.5073 115.531 14.0578 115.207 13.7231C114.887 13.3884 114.465 13.2211 113.94 13.2211C113.586 13.2211 113.266 13.311 112.981 13.4908C112.702 13.6656 112.479 13.9129 112.314 14.2326C112.15 14.5473 112.067 14.917 112.067 15.3415V22.25H108.875ZM133.321 22.4748C132.157 22.4748 131.15 22.2275 130.301 21.733C129.457 21.2335 128.805 20.5391 128.345 19.65C127.886 18.7558 127.656 17.7193 127.656 16.5404C127.656 15.3515 127.886 14.3125 128.345 13.4234C128.805 12.5292 129.457 11.8349 130.301 11.3403C131.15 10.8408 132.157 10.5911 133.321 10.5911C134.485 10.5911 135.489 10.8408 136.333 11.3403C137.182 11.8349 137.836 12.5292 138.296 13.4234C138.756 14.3125 138.985 15.3515 138.985 16.5404C138.985 17.7193 138.756 18.7558 138.296 19.65C137.836 20.5391 137.182 21.2335 136.333 21.733C135.489 22.2275 134.485 22.4748 133.321 22.4748ZM133.336 20.0021C133.865 20.0021 134.307 19.8523 134.662 19.5526C135.017 19.2478 135.284 18.8332 135.464 18.3087C135.649 17.7842 135.741 17.1873 135.741 16.5179C135.741 15.8486 135.649 15.2516 135.464 14.7271C135.284 14.2026 135.017 13.788 134.662 13.4833C134.307 13.1786 133.865 13.0262 133.336 13.0262C132.801 13.0262 132.352 13.1786 131.987 13.4833C131.627 13.788 131.355 14.2026 131.17 14.7271C130.99 15.2516 130.901 15.8486 130.901 16.5179C130.901 17.1873 130.99 17.7842 131.17 18.3087C131.355 18.8332 131.627 19.2478 131.987 19.5526C132.352 19.8523 132.801 20.0021 133.336 20.0021ZM141.061 22.25V10.7409H144.155V12.749H144.275C144.485 12.0347 144.837 11.4952 145.332 11.1305C145.826 10.7609 146.396 10.5761 147.04 10.5761C147.2 10.5761 147.372 10.5861 147.557 10.606C147.742 10.626 147.904 10.6535 148.044 10.6885V13.5208C147.894 13.4758 147.687 13.4359 147.422 13.4009C147.158 13.3659 146.915 13.3484 146.696 13.3484C146.226 13.3484 145.806 13.4508 145.437 13.6556C145.072 13.8555 144.782 14.1352 144.568 14.4949C144.358 14.8545 144.253 15.2691 144.253 15.7387V22.25H141.061ZM152.647 22.4673C151.912 22.4673 151.258 22.3399 150.684 22.0852C150.109 21.8254 149.655 21.4433 149.32 20.9387C148.99 20.4292 148.825 19.7948 148.825 19.0355C148.825 18.3962 148.943 17.8592 149.178 17.4246C149.412 16.99 149.732 16.6403 150.137 16.3756C150.541 16.1108 151.001 15.911 151.515 15.7761C152.035 15.6413 152.579 15.5464 153.149 15.4914C153.818 15.4215 154.358 15.3565 154.767 15.2966C155.177 15.2317 155.474 15.1367 155.659 15.0119C155.844 14.887 155.936 14.7022 155.936 14.4574V14.4124C155.936 13.9379 155.786 13.5707 155.487 13.311C155.192 13.0512 154.772 12.9213 154.228 12.9213C153.653 12.9213 153.196 13.0487 152.857 13.3035C152.517 13.5532 152.292 13.8679 152.182 14.2476L149.23 14.0078C149.38 13.3085 149.675 12.704 150.114 12.1945C150.554 11.68 151.121 11.2854 151.815 11.0107C152.514 10.7309 153.324 10.5911 154.243 10.5911C154.882 10.5911 155.494 10.666 156.079 10.8158C156.668 10.9657 157.19 11.198 157.645 11.5127C158.104 11.8274 158.466 12.232 158.731 12.7265C158.996 13.2161 159.128 13.803 159.128 14.4874V22.25H156.101V20.654H156.011C155.826 21.0137 155.579 21.3309 155.269 21.6056C154.96 21.8754 154.587 22.0877 154.153 22.2425C153.718 22.3924 153.216 22.4673 152.647 22.4673ZM153.561 20.2644C154.03 20.2644 154.445 20.172 154.805 19.9871C155.164 19.7973 155.447 19.5426 155.651 19.2229C155.856 18.9032 155.959 18.541 155.959 18.1364V16.9151C155.859 16.98 155.721 17.0399 155.547 17.0949C155.377 17.1448 155.184 17.1923 154.97 17.2373C154.755 17.2772 154.54 17.3147 154.325 17.3496C154.11 17.3796 153.916 17.4071 153.741 17.4321C153.366 17.487 153.039 17.5744 152.759 17.6943C152.479 17.8142 152.262 17.9766 152.107 18.1814C151.952 18.3812 151.875 18.6309 151.875 18.9306C151.875 19.3652 152.032 19.6974 152.347 19.9272C152.667 20.152 153.071 20.2644 153.561 20.2644Z" fill="white"/>
<path d="M2.24997 42.2056L2.24998 27.2222C2.24998 23.9428 2.84604 20.6955 4.00413 17.6658C5.16222 14.636 6.85966 11.8831 8.99954 9.56419C13.3212 4.88099 19.1827 2.25 25.2944 2.25C31.4062 2.25 37.2676 4.88099 41.5893 9.56419C45.911 14.2474 48.3389 20.5992 48.3389 27.2222L48.3389 42.2056" stroke="#EBEBEB" stroke-width="4.5" stroke-linecap="round" stroke-linejoin="round"/>
<path d="M9.02828 40.8279L9.02828 29.9779C9.02828 27.6031 9.4315 25.2516 10.2149 23.0577C10.9983 20.8637 12.1466 18.8702 13.5942 17.191C16.5176 13.7997 20.4827 11.8945 24.6172 11.8945C28.7516 11.8945 32.7167 13.7997 35.6402 17.191C38.5637 20.5823 40.2061 25.1819 40.2061 29.9779L40.2061 40.8279" stroke="#EBEBEB" stroke-width="2" stroke-linecap="round" stroke-linejoin="round"/>
<path d="M67.6563 41.25H65.7188V40.5937H67.6133C68.3008 40.5937 68.8763 40.4583 69.3398 40.1875C69.8034 39.9167 70.151 39.5299 70.3828 39.0273C70.6146 38.5247 70.7305 37.9258 70.7305 37.2305C70.7279 36.5404 70.6133 35.9466 70.3867 35.4492C70.1628 34.9518 69.8294 34.5703 69.3867 34.3047C68.9466 34.0391 68.4023 33.9062 67.7539 33.9062H65.6875V33.25H67.7969C68.5599 33.25 69.2122 33.4089 69.7539 33.7266C70.2982 34.0443 70.7148 34.5 71.0039 35.0937C71.293 35.6875 71.4375 36.3997 71.4375 37.2305C71.4375 38.069 71.2891 38.7891 70.9922 39.3906C70.6979 39.9896 70.2682 40.4492 69.7031 40.7695C69.1406 41.0898 68.4583 41.25 67.6563 41.25ZM66.043 33.25V41.25H65.3125V33.25H66.043ZM64.0352 37.4258V36.8633H67.3164V37.4258H64.0352ZM73.0713 41.25V35.25H73.7705V41.25H73.0713ZM73.7354 34.4531H73.1416V33.6367C73.4255 33.6211 73.6247 33.5781 73.7393 33.5078C73.8538 33.4375 73.9111 33.3268 73.9111 33.1758C73.9111 33.0039 73.8304 32.8789 73.6689 32.8008C73.5101 32.7201 73.2979 32.6784 73.0322 32.6758L73.0674 32.1992C73.5596 32.1992 73.9294 32.2891 74.1768 32.4687C74.4268 32.6484 74.5518 32.888 74.5518 33.1875C74.5518 33.4479 74.4697 33.6445 74.3057 33.7773C74.1442 33.9076 73.9541 33.9857 73.7354 34.0117V34.4531ZM76.3047 37.5V41.25H75.6094V35.25H76.2852V36.1914H76.3477C76.4883 35.8841 76.707 35.638 77.0039 35.4531C77.3034 35.2656 77.6732 35.1719 78.1133 35.1719C78.5169 35.1719 78.8711 35.2565 79.1758 35.4258C79.4831 35.5924 79.7214 35.8385 79.8906 36.1641C80.0625 36.4896 80.1484 36.8893 80.1484 37.3633V41.25H79.4531V37.4062C79.4531 36.9141 79.3151 36.5247 79.0391 36.2383C78.7656 35.9518 78.3984 35.8086 77.9375 35.8086C77.6224 35.8086 77.3424 35.8763 77.0977 36.0117C76.8529 36.1471 76.6589 36.3424 76.5156 36.5977C76.375 36.8503 76.3047 37.151 76.3047 37.5ZM82.6748 37.5V41.25H81.9795V33.25H82.6748V36.1914H82.7373C82.8779 35.8815 83.0954 35.6341 83.3896 35.4492C83.6865 35.2643 84.0615 35.1719 84.5146 35.1719C84.9209 35.1719 85.2777 35.2552 85.585 35.4219C85.8923 35.5885 86.1318 35.8346 86.3037 36.1602C86.4756 36.4857 86.5615 36.8867 86.5615 37.3633V41.25H85.8623V37.4062C85.8623 36.9115 85.7243 36.5221 85.4482 36.2383C85.1748 35.9518 84.805 35.8086 84.3389 35.8086C84.0186 35.8086 83.7334 35.8763 83.4834 36.0117C83.2334 36.1471 83.0355 36.3424 82.8896 36.5977C82.7464 36.8503 82.6748 37.151 82.6748 37.5ZM93.8301 41.375C93.2936 41.375 92.8262 41.2409 92.4277 40.9727C92.0319 40.7044 91.7246 40.3372 91.5059 39.8711C91.2871 39.4049 91.1777 38.8737 91.1777 38.2773C91.1777 37.6758 91.2884 37.1406 91.5098 36.6719C91.7337 36.2031 92.0436 35.8359 92.4395 35.5703C92.8353 35.3021 93.2949 35.168 93.8184 35.168C94.2194 35.168 94.5827 35.2461 94.9082 35.4023C95.2337 35.556 95.502 35.7734 95.7129 36.0547C95.9264 36.3333 96.0605 36.6589 96.1152 37.0312H95.4121C95.3392 36.6927 95.1634 36.4036 94.8848 36.1641C94.6087 35.9219 94.2572 35.8008 93.8301 35.8008C93.4473 35.8008 93.1087 35.9049 92.8145 36.1133C92.5202 36.319 92.2897 36.6068 92.123 36.9766C91.959 37.3437 91.877 37.7695 91.877 38.2539C91.877 38.7409 91.9577 39.1719 92.1191 39.5469C92.2806 39.9193 92.5072 40.2109 92.7988 40.4219C93.0931 40.6328 93.4368 40.7383 93.8301 40.7383C94.0957 40.7383 94.3379 40.6888 94.5566 40.5898C94.778 40.4883 94.9629 40.3451 95.1113 40.1602C95.2624 39.9753 95.3639 39.7552 95.416 39.5H96.1191C96.0671 39.862 95.9382 40.1849 95.7324 40.4688C95.5293 40.75 95.265 40.9714 94.9395 41.1328C94.6165 41.2943 94.2467 41.375 93.8301 41.375ZM99.2852 41.3867C98.9232 41.3867 98.5924 41.3164 98.293 41.1758C97.9935 41.0326 97.7552 40.8268 97.5781 40.5586C97.401 40.2878 97.3125 39.9596 97.3125 39.5742C97.3125 39.2773 97.3685 39.0273 97.4805 38.8242C97.5924 38.6211 97.7513 38.4544 97.957 38.3242C98.1628 38.194 98.4063 38.0911 98.6875 38.0156C98.9688 37.9401 99.2786 37.8815 99.6172 37.8398C99.9531 37.7982 100.237 37.7617 100.469 37.7305C100.703 37.6992 100.882 37.6497 101.004 37.582C101.126 37.5143 101.188 37.4049 101.188 37.2539V37.1133C101.188 36.7044 101.065 36.3828 100.82 36.1484C100.578 35.9115 100.229 35.793 99.7734 35.793C99.3411 35.793 98.9883 35.888 98.7148 36.0781C98.444 36.2682 98.2539 36.4922 98.1445 36.75L97.4844 36.5117C97.6198 36.1836 97.8073 35.9219 98.0469 35.7266C98.2865 35.5286 98.5547 35.3867 98.8516 35.3008C99.1484 35.2122 99.4492 35.168 99.7539 35.168C99.9831 35.168 100.221 35.1979 100.469 35.2578C100.719 35.3177 100.951 35.4219 101.164 35.5703C101.378 35.7161 101.551 35.9206 101.684 36.1836C101.816 36.444 101.883 36.7747 101.883 37.1758V41.25H101.188V40.3008H101.145C101.061 40.4779 100.937 40.6497 100.773 40.8164C100.609 40.9831 100.404 41.1198 100.156 41.2266C99.9089 41.3333 99.6185 41.3867 99.2852 41.3867ZM99.3789 40.75C99.7487 40.75 100.069 40.668 100.34 40.5039C100.611 40.3398 100.819 40.1224 100.965 39.8516C101.113 39.5781 101.188 39.2773 101.188 38.9492V38.082C101.135 38.1315 101.048 38.1758 100.926 38.2148C100.806 38.2539 100.667 38.2891 100.508 38.3203C100.352 38.349 100.195 38.3737 100.039 38.3945C99.8828 38.4154 99.7422 38.4336 99.6172 38.4492C99.2786 38.4909 98.9896 38.556 98.75 38.6445C98.5104 38.7331 98.3268 38.8555 98.1992 39.0117C98.0716 39.1654 98.0078 39.3633 98.0078 39.6055C98.0078 39.9701 98.138 40.2526 98.3984 40.4531C98.6589 40.651 98.9857 40.75 99.3789 40.75ZM106.064 41.375C105.546 41.375 105.088 41.2435 104.689 40.9805C104.294 40.7174 103.984 40.3542 103.76 39.8906C103.536 39.4245 103.424 38.8867 103.424 38.2773C103.424 37.6628 103.536 37.1224 103.76 36.6562C103.984 36.1875 104.294 35.8229 104.689 35.5625C105.088 35.2995 105.546 35.168 106.064 35.168C106.583 35.168 107.04 35.2995 107.436 35.5625C107.831 35.8255 108.141 36.1901 108.365 36.6562C108.592 37.1224 108.705 37.6628 108.705 38.2773C108.705 38.8867 108.593 39.4245 108.369 39.8906C108.145 40.3542 107.834 40.7174 107.436 40.9805C107.04 41.2435 106.583 41.375 106.064 41.375ZM106.064 40.7383C106.481 40.7383 106.834 40.6263 107.123 40.4023C107.412 40.1784 107.631 39.8802 107.779 39.5078C107.93 39.1354 108.006 38.7253 108.006 38.2773C108.006 37.8294 107.93 37.418 107.779 37.043C107.631 36.668 107.412 36.3672 107.123 36.1406C106.834 35.9141 106.481 35.8008 106.064 35.8008C105.65 35.8008 105.298 35.9141 105.006 36.1406C104.717 36.3672 104.497 36.668 104.346 37.043C104.197 37.418 104.123 37.8294 104.123 38.2773C104.123 38.7253 104.197 39.1354 104.346 39.5078C104.497 39.8802 104.717 40.1784 105.006 40.4023C105.295 40.6263 105.648 40.7383 106.064 40.7383ZM115.485 41.375C114.993 41.375 114.562 41.2448 114.192 40.9844C113.823 40.724 113.534 40.3607 113.325 39.8945C113.119 39.4284 113.017 38.8854 113.017 38.2656C113.017 37.6484 113.119 37.1081 113.325 36.6445C113.534 36.1784 113.824 35.8164 114.196 35.5586C114.569 35.2982 115.002 35.168 115.497 35.168C115.862 35.168 116.165 35.2331 116.407 35.3633C116.649 35.4909 116.843 35.6497 116.989 35.8398C117.135 36.0299 117.248 36.2148 117.329 36.3945H117.392V33.25H118.091V41.25H117.411V40.1367H117.329C117.248 40.319 117.134 40.5065 116.985 40.6992C116.837 40.8893 116.64 41.0495 116.396 41.1797C116.153 41.3099 115.85 41.375 115.485 41.375ZM115.567 40.7383C115.955 40.7383 116.286 40.6328 116.56 40.4219C116.833 40.2083 117.041 39.9154 117.185 39.543C117.33 39.168 117.403 38.7383 117.403 38.2539C117.403 37.7747 117.332 37.3516 117.188 36.9844C117.045 36.6146 116.837 36.3255 116.563 36.1172C116.29 35.9062 115.958 35.8008 115.567 35.8008C115.166 35.8008 114.828 35.9102 114.552 36.1289C114.278 36.3451 114.07 36.638 113.927 37.0078C113.786 37.3776 113.716 37.793 113.716 38.2539C113.716 38.7201 113.787 39.1406 113.931 39.5156C114.074 39.8906 114.282 40.1888 114.556 40.4102C114.832 40.6289 115.169 40.7383 115.567 40.7383ZM115.731 34.6563V34.0937H119.013V34.6563H115.731ZM120.455 41.25V35.25H121.154V41.25H120.455ZM120.811 34.2187C120.667 34.2187 120.545 34.1706 120.443 34.0742C120.342 33.9753 120.291 33.8568 120.291 33.7187C120.291 33.5807 120.342 33.4635 120.443 33.3672C120.545 33.2682 120.667 33.2187 120.811 33.2187C120.954 33.2187 121.076 33.2682 121.178 33.3672C121.279 33.4635 121.33 33.5807 121.33 33.7187C121.33 33.8568 121.279 33.9753 121.178 34.0742C121.076 34.1706 120.954 34.2187 120.811 34.2187ZM125.419 41.375C124.859 41.375 124.375 41.2448 123.966 40.9844C123.557 40.7214 123.241 40.3581 123.017 39.8945C122.795 39.4284 122.685 38.8919 122.685 38.2852C122.685 37.681 122.795 37.1445 123.017 36.6758C123.241 36.2044 123.549 35.8359 123.942 35.5703C124.338 35.3021 124.795 35.168 125.313 35.168C125.639 35.168 125.953 35.2279 126.255 35.3477C126.557 35.4648 126.828 35.6458 127.067 35.8906C127.31 36.1328 127.501 36.4388 127.642 36.8086C127.782 37.1758 127.853 37.6107 127.853 38.1133V38.457H123.165V37.8437H127.142C127.142 37.4583 127.063 37.112 126.907 36.8047C126.754 36.4948 126.539 36.25 126.263 36.0703C125.989 35.8906 125.673 35.8008 125.313 35.8008C124.933 35.8008 124.599 35.9023 124.31 36.1055C124.021 36.3086 123.794 36.5768 123.63 36.9102C123.468 37.2435 123.386 37.6081 123.384 38.0039V38.3711C123.384 38.8477 123.466 39.2643 123.63 39.6211C123.797 39.9753 124.032 40.25 124.337 40.4453C124.642 40.6406 125.002 40.7383 125.419 40.7383C125.703 40.7383 125.951 40.694 126.165 40.6055C126.381 40.5169 126.562 40.3984 126.708 40.25C126.856 40.099 126.968 39.9336 127.044 39.7539L127.704 39.9687C127.613 40.2214 127.463 40.4544 127.255 40.668C127.049 40.8815 126.791 41.0534 126.481 41.1836C126.174 41.3112 125.82 41.375 125.419 41.375ZM126.212 34.5625L125.278 33.4336L124.345 34.5625H123.665V34.5117L124.985 32.9375H125.571L126.892 34.5117V34.5625H126.212ZM125.278 43.168C125.138 43.168 125.015 43.1185 124.911 43.0195C124.81 42.9206 124.759 42.8034 124.759 42.668C124.759 42.5299 124.81 42.4115 124.911 42.3125C125.015 42.2161 125.138 42.168 125.278 42.168C125.422 42.168 125.544 42.2161 125.646 42.3125C125.75 42.4115 125.802 42.5299 125.802 42.668C125.802 42.8034 125.75 42.9206 125.646 43.0195C125.544 43.1185 125.422 43.168 125.278 43.168ZM130.08 37.5V41.25H129.385V35.25H130.061V36.1914H130.123C130.264 35.8841 130.482 35.638 130.779 35.4531C131.079 35.2656 131.449 35.1719 131.889 35.1719C132.292 35.1719 132.646 35.2565 132.951 35.4258C133.258 35.5924 133.497 35.8385 133.666 36.1641C133.838 36.4896 133.924 36.8893 133.924 37.3633V41.25H133.229V37.4062C133.229 36.9141 133.09 36.5247 132.814 36.2383C132.541 35.9518 132.174 35.8086 131.713 35.8086C131.398 35.8086 131.118 35.8763 130.873 36.0117C130.628 36.1471 130.434 36.3424 130.291 36.5977C130.15 36.8503 130.08 37.151 130.08 37.5ZM140.524 41.3867C140.162 41.3867 139.832 41.3164 139.532 41.1758C139.233 41.0326 138.994 40.8268 138.817 40.5586C138.64 40.2878 138.552 39.9596 138.552 39.5742C138.552 39.2773 138.608 39.0273 138.72 38.8242C138.832 38.6211 138.991 38.4544 139.196 38.3242C139.402 38.194 139.646 38.0911 139.927 38.0156C140.208 37.9401 140.518 37.8815 140.856 37.8398C141.192 37.7982 141.476 37.7617 141.708 37.7305C141.942 37.6992 142.121 37.6497 142.243 37.582C142.366 37.5143 142.427 37.4049 142.427 37.2539V37.1133C142.427 36.7044 142.304 36.3828 142.06 36.1484C141.817 35.9115 141.468 35.793 141.013 35.793C140.58 35.793 140.228 35.888 139.954 36.0781C139.683 36.2682 139.493 36.4922 139.384 36.75L138.724 36.5117C138.859 36.1836 139.047 35.9219 139.286 35.7266C139.526 35.5286 139.794 35.3867 140.091 35.3008C140.388 35.2122 140.688 35.168 140.993 35.168C141.222 35.168 141.461 35.1979 141.708 35.2578C141.958 35.3177 142.19 35.4219 142.403 35.5703C142.617 35.7161 142.79 35.9206 142.923 36.1836C143.056 36.444 143.122 36.7747 143.122 37.1758V41.25H142.427V40.3008H142.384C142.3 40.4779 142.177 40.6497 142.013 40.8164C141.849 40.9831 141.643 41.1198 141.396 41.2266C141.148 41.3333 140.858 41.3867 140.524 41.3867ZM140.618 40.75C140.988 40.75 141.308 40.668 141.579 40.5039C141.85 40.3398 142.058 40.1224 142.204 39.8516C142.353 39.5781 142.427 39.2773 142.427 38.9492V38.082C142.375 38.1315 142.287 38.1758 142.165 38.2148C142.045 38.2539 141.906 38.2891 141.747 38.3203C141.591 38.349 141.435 38.3737 141.278 38.3945C141.122 38.4154 140.981 38.4336 140.856 38.4492C140.518 38.4909 140.229 38.556 139.989 38.6445C139.75 38.7331 139.566 38.8555 139.438 39.0117C139.311 39.1654 139.247 39.3633 139.247 39.6055C139.247 39.9701 139.377 40.2526 139.638 40.4531C139.898 40.651 140.225 40.75 140.618 40.75ZM141.364 34.4531H140.771V33.6367C141.054 33.6211 141.254 33.5781 141.368 33.5078C141.483 33.4375 141.54 33.3268 141.54 33.1758C141.54 33.0039 141.459 32.8789 141.298 32.8008C141.139 32.7201 140.927 32.6784 140.661 32.6758L140.696 32.1992C141.188 32.1992 141.558 32.2891 141.806 32.4687C142.056 32.6484 142.181 32.888 142.181 33.1875C142.181 33.4479 142.099 33.6445 141.935 33.7773C141.773 33.9076 141.583 33.9857 141.364 34.0117V34.4531ZM145.667 37.5V41.25H144.972V35.25H145.647V36.1914H145.71C145.851 35.8841 146.069 35.638 146.366 35.4531C146.666 35.2656 147.035 35.1719 147.476 35.1719C147.879 35.1719 148.233 35.2565 148.538 35.4258C148.845 35.5924 149.084 35.8385 149.253 36.1641C149.425 36.4896 149.511 36.8893 149.511 37.3633V41.25H148.815V37.4062C148.815 36.9141 148.677 36.5247 148.401 36.2383C148.128 35.9518 147.761 35.8086 147.3 35.8086C146.985 35.8086 146.705 35.8763 146.46 36.0117C146.215 36.1471 146.021 36.3424 145.878 36.5977C145.737 36.8503 145.667 37.151 145.667 37.5ZM152.037 37.5V41.25H151.342V33.25H152.037V36.1914H152.1C152.24 35.8815 152.458 35.6341 152.752 35.4492C153.049 35.2643 153.424 35.1719 153.877 35.1719C154.283 35.1719 154.64 35.2552 154.947 35.4219C155.255 35.5885 155.494 35.8346 155.666 36.1602C155.838 36.4857 155.924 36.8867 155.924 37.3633V41.25H155.225V37.4062C155.225 36.9115 155.087 36.5221 154.811 36.2383C154.537 35.9518 154.167 35.8086 153.701 35.8086C153.381 35.8086 153.096 35.8763 152.846 36.0117C152.596 36.1471 152.398 36.3424 152.252 36.5977C152.109 36.8503 152.037 37.151 152.037 37.5Z" fill="white"/>
<path d="M20.5151 22.9624L31.4399 29.9023L20.5151 36.8422V22.9624Z" fill="#FFD766" stroke="#FFD36B" stroke-width="2" stroke-linecap="round" stroke-linejoin="round"/>
</svg>
