<svg width="45" height="45" viewBox="0 0 45 45" fill="none" xmlns="http://www.w3.org/2000/svg">
<path d="M3 39L3 28.125C3 25.7448 3.43971 23.3879 4.29404 21.1889C5.14838 18.9898 6.40059 16.9918 7.97918 15.3087C11.1673 11.9096 15.4913 10 20 10C24.5087 10 28.8327 11.9096 32.0208 15.3087C35.2089 18.7078 37 23.318 37 28.125L37 39" stroke="#EBEBEB" stroke-width="4.5" stroke-linecap="round" stroke-linejoin="round"/>
<path d="M8 38L8 30.125C8 28.4014 8.29746 26.6947 8.87538 25.1023C9.45331 23.5099 10.3004 22.063 11.3683 20.8442C13.5249 18.3828 16.45 17 19.5 17C22.55 17 25.4751 18.3828 27.6317 20.8442C29.7884 23.3056 31 26.644 31 30.125L31 38" stroke="#EBEBEB" stroke-width="2" stroke-linecap="round" stroke-linejoin="round"/>
<path d="M17.2122 25.0332L25.2714 30.0702L17.2122 35.1073V25.0332Z" fill="#FFD766" stroke="#FFD36B" stroke-width="2" stroke-linecap="round" stroke-linejoin="round"/>
</svg>
